<mxfile host="app.diagrams.net" modified="2021-07-16T08:45:21.965Z" agent="5.0 (Windows NT 10.0; Win64; x64) AppleWebKit/537.36 (KHTML, like Gecko) Chrome/91.0.4472.124 Safari/537.36" etag="lC3DrB5o552FuR5QK1EV" version="14.8.6" type="github">
  <diagram id="ocM4UOAhsCImK68CdOgO" name="Page-1">
    <mxGraphModel dx="1422" dy="762" grid="1" gridSize="10" guides="1" tooltips="1" connect="1" arrows="1" fold="1" page="1" pageScale="1" pageWidth="827" pageHeight="1169" math="0" shadow="0">
      <root>
        <mxCell id="0" />
        <mxCell id="1" parent="0" />
        <mxCell id="Y58ZHx-CRsHNFfskCRQ7-1" value="" style="endArrow=classic;html=1;" parent="1" edge="1">
          <mxGeometry width="50" height="50" relative="1" as="geometry">
            <mxPoint x="96" y="265" as="sourcePoint" />
            <mxPoint x="156" y="265" as="targetPoint" />
          </mxGeometry>
        </mxCell>
        <mxCell id="Y58ZHx-CRsHNFfskCRQ7-2" value="F0" style="text;html=1;align=center;verticalAlign=middle;resizable=0;points=[];autosize=1;strokeColor=none;" parent="1" vertex="1">
          <mxGeometry x="111" y="240" width="30" height="20" as="geometry" />
        </mxCell>
        <mxCell id="Y58ZHx-CRsHNFfskCRQ7-11" style="edgeStyle=orthogonalEdgeStyle;rounded=0;orthogonalLoop=1;jettySize=auto;html=1;" parent="1" source="Y58ZHx-CRsHNFfskCRQ7-3" edge="1">
          <mxGeometry relative="1" as="geometry">
            <mxPoint x="310" y="263" as="targetPoint" />
          </mxGeometry>
        </mxCell>
        <mxCell id="Y58ZHx-CRsHNFfskCRQ7-3" value="脉冲生成器" style="rounded=0;whiteSpace=wrap;html=1;" parent="1" vertex="1">
          <mxGeometry x="160" y="240" width="90" height="45" as="geometry" />
        </mxCell>
        <mxCell id="Y58ZHx-CRsHNFfskCRQ7-5" value="" style="endArrow=classic;html=1;" parent="1" edge="1">
          <mxGeometry width="50" height="50" relative="1" as="geometry">
            <mxPoint x="91" y="340" as="sourcePoint" />
            <mxPoint x="160" y="340" as="targetPoint" />
          </mxGeometry>
        </mxCell>
        <mxCell id="Y58ZHx-CRsHNFfskCRQ7-6" value="MFCC" style="text;html=1;align=center;verticalAlign=middle;resizable=0;points=[];autosize=1;strokeColor=none;" parent="1" vertex="1">
          <mxGeometry x="101" y="320" width="50" height="20" as="geometry" />
        </mxCell>
        <mxCell id="Y58ZHx-CRsHNFfskCRQ7-14" style="edgeStyle=orthogonalEdgeStyle;rounded=0;orthogonalLoop=1;jettySize=auto;html=1;exitX=1;exitY=0.5;exitDx=0;exitDy=0;entryX=0.5;entryY=1;entryDx=0;entryDy=0;" parent="1" source="Y58ZHx-CRsHNFfskCRQ7-7" target="Y58ZHx-CRsHNFfskCRQ7-13" edge="1">
          <mxGeometry relative="1" as="geometry" />
        </mxCell>
        <mxCell id="Y58ZHx-CRsHNFfskCRQ7-7" value="谐波滤波器估计器" style="rounded=0;whiteSpace=wrap;html=1;" parent="1" vertex="1">
          <mxGeometry x="160" y="320" width="130" height="40" as="geometry" />
        </mxCell>
        <mxCell id="Y58ZHx-CRsHNFfskCRQ7-25" style="edgeStyle=orthogonalEdgeStyle;rounded=0;orthogonalLoop=1;jettySize=auto;html=1;exitX=1;exitY=0.5;exitDx=0;exitDy=0;" parent="1" source="Y58ZHx-CRsHNFfskCRQ7-8" edge="1">
          <mxGeometry relative="1" as="geometry">
            <mxPoint x="370" y="440" as="targetPoint" />
          </mxGeometry>
        </mxCell>
        <mxCell id="Y58ZHx-CRsHNFfskCRQ7-8" value="噪声滤波器估计器" style="rounded=0;whiteSpace=wrap;html=1;" parent="1" vertex="1">
          <mxGeometry x="160" y="370" width="130" height="40" as="geometry" />
        </mxCell>
        <mxCell id="Y58ZHx-CRsHNFfskCRQ7-9" value="" style="endArrow=classic;html=1;" parent="1" edge="1">
          <mxGeometry width="50" height="50" relative="1" as="geometry">
            <mxPoint x="119" y="340" as="sourcePoint" />
            <mxPoint x="160" y="380" as="targetPoint" />
            <Array as="points">
              <mxPoint x="119" y="380" />
            </Array>
          </mxGeometry>
        </mxCell>
        <mxCell id="Y58ZHx-CRsHNFfskCRQ7-12" value="p[n]" style="text;html=1;align=center;verticalAlign=middle;resizable=0;points=[];autosize=1;strokeColor=none;" parent="1" vertex="1">
          <mxGeometry x="260" y="240" width="40" height="20" as="geometry" />
        </mxCell>
        <mxCell id="Y58ZHx-CRsHNFfskCRQ7-20" style="edgeStyle=orthogonalEdgeStyle;rounded=0;orthogonalLoop=1;jettySize=auto;html=1;exitX=1;exitY=0.5;exitDx=0;exitDy=0;entryX=0;entryY=0.5;entryDx=0;entryDy=0;" parent="1" source="Y58ZHx-CRsHNFfskCRQ7-13" target="Y58ZHx-CRsHNFfskCRQ7-19" edge="1">
          <mxGeometry relative="1" as="geometry">
            <mxPoint x="470" y="310" as="targetPoint" />
          </mxGeometry>
        </mxCell>
        <mxCell id="Y58ZHx-CRsHNFfskCRQ7-13" value="时变谐波滤波器" style="rounded=0;whiteSpace=wrap;html=1;" parent="1" vertex="1">
          <mxGeometry x="310" y="240" width="120" height="42.5" as="geometry" />
        </mxCell>
        <mxCell id="Y58ZHx-CRsHNFfskCRQ7-15" value="h_p[m,n]" style="text;html=1;align=center;verticalAlign=middle;resizable=0;points=[];autosize=1;strokeColor=none;" parent="1" vertex="1">
          <mxGeometry x="300" y="320" width="60" height="20" as="geometry" />
        </mxCell>
        <mxCell id="Y58ZHx-CRsHNFfskCRQ7-30" style="edgeStyle=orthogonalEdgeStyle;rounded=0;orthogonalLoop=1;jettySize=auto;html=1;exitX=1;exitY=0.5;exitDx=0;exitDy=0;" parent="1" source="Y58ZHx-CRsHNFfskCRQ7-19" target="Y58ZHx-CRsHNFfskCRQ7-31" edge="1">
          <mxGeometry relative="1" as="geometry">
            <mxPoint x="560" y="325" as="targetPoint" />
          </mxGeometry>
        </mxCell>
        <mxCell id="Y58ZHx-CRsHNFfskCRQ7-19" value="" style="shape=orEllipse;perimeter=ellipsePerimeter;whiteSpace=wrap;html=1;backgroundOutline=1;" parent="1" vertex="1">
          <mxGeometry x="490" y="310" width="30" height="30" as="geometry" />
        </mxCell>
        <mxCell id="Y58ZHx-CRsHNFfskCRQ7-27" style="edgeStyle=orthogonalEdgeStyle;rounded=0;orthogonalLoop=1;jettySize=auto;html=1;exitX=1;exitY=0.5;exitDx=0;exitDy=0;entryX=0.5;entryY=1;entryDx=0;entryDy=0;" parent="1" source="Y58ZHx-CRsHNFfskCRQ7-21" target="Y58ZHx-CRsHNFfskCRQ7-19" edge="1">
          <mxGeometry relative="1" as="geometry">
            <mxPoint x="500" y="350" as="targetPoint" />
            <Array as="points">
              <mxPoint x="505" y="462" />
            </Array>
          </mxGeometry>
        </mxCell>
        <mxCell id="Y58ZHx-CRsHNFfskCRQ7-21" value="时变噪声滤波器" style="rounded=0;whiteSpace=wrap;html=1;" parent="1" vertex="1">
          <mxGeometry x="310" y="441" width="120" height="42.5" as="geometry" />
        </mxCell>
        <mxCell id="Y58ZHx-CRsHNFfskCRQ7-23" style="edgeStyle=orthogonalEdgeStyle;rounded=0;orthogonalLoop=1;jettySize=auto;html=1;exitX=1;exitY=0.5;exitDx=0;exitDy=0;entryX=0;entryY=0.5;entryDx=0;entryDy=0;" parent="1" source="Y58ZHx-CRsHNFfskCRQ7-22" target="Y58ZHx-CRsHNFfskCRQ7-21" edge="1">
          <mxGeometry relative="1" as="geometry" />
        </mxCell>
        <mxCell id="Y58ZHx-CRsHNFfskCRQ7-22" value="白噪声发生器" style="rounded=0;whiteSpace=wrap;html=1;" parent="1" vertex="1">
          <mxGeometry x="151" y="440" width="89" height="45" as="geometry" />
        </mxCell>
        <mxCell id="Y58ZHx-CRsHNFfskCRQ7-24" value="u[n]" style="text;html=1;align=center;verticalAlign=middle;resizable=0;points=[];autosize=1;strokeColor=none;" parent="1" vertex="1">
          <mxGeometry x="250" y="441" width="40" height="20" as="geometry" />
        </mxCell>
        <mxCell id="Y58ZHx-CRsHNFfskCRQ7-26" value="h_n[m,n]" style="text;html=1;align=center;verticalAlign=middle;resizable=0;points=[];autosize=1;strokeColor=none;" parent="1" vertex="1">
          <mxGeometry x="300" y="370" width="60" height="20" as="geometry" />
        </mxCell>
        <mxCell id="Y58ZHx-CRsHNFfskCRQ7-28" value="s_h[n]" style="text;html=1;align=center;verticalAlign=middle;resizable=0;points=[];autosize=1;strokeColor=none;" parent="1" vertex="1">
          <mxGeometry x="430" y="240" width="50" height="20" as="geometry" />
        </mxCell>
        <mxCell id="Y58ZHx-CRsHNFfskCRQ7-29" value="s_n[n]" style="text;html=1;align=center;verticalAlign=middle;resizable=0;points=[];autosize=1;strokeColor=none;" parent="1" vertex="1">
          <mxGeometry x="435" y="440" width="50" height="20" as="geometry" />
        </mxCell>
        <mxCell id="Y58ZHx-CRsHNFfskCRQ7-32" style="edgeStyle=orthogonalEdgeStyle;rounded=0;orthogonalLoop=1;jettySize=auto;html=1;exitX=1;exitY=0.5;exitDx=0;exitDy=0;" parent="1" source="Y58ZHx-CRsHNFfskCRQ7-31" edge="1">
          <mxGeometry relative="1" as="geometry">
            <mxPoint x="690" y="325" as="targetPoint" />
          </mxGeometry>
        </mxCell>
        <mxCell id="Y58ZHx-CRsHNFfskCRQ7-31" value="环境滤波" style="rounded=0;whiteSpace=wrap;html=1;" parent="1" vertex="1">
          <mxGeometry x="570" y="307.5" width="70" height="35" as="geometry" />
        </mxCell>
        <mxCell id="Y58ZHx-CRsHNFfskCRQ7-33" value="s[n]" style="text;html=1;align=center;verticalAlign=middle;resizable=0;points=[];autosize=1;strokeColor=none;" parent="1" vertex="1">
          <mxGeometry x="685" y="320" width="30" height="20" as="geometry" />
        </mxCell>
        <mxCell id="t8KxHsT-wmfrqZRgbDNX-1" value="e[n]" style="text;html=1;align=center;verticalAlign=middle;resizable=0;points=[];autosize=1;strokeColor=none;" vertex="1" parent="1">
          <mxGeometry x="580" y="282.5" width="40" height="20" as="geometry" />
        </mxCell>
      </root>
    </mxGraphModel>
  </diagram>
</mxfile>
